<svg width="36" height="37" viewBox="0 0 36 37" fill="none" xmlns="http://www.w3.org/2000/svg">
<path d="M27.8534 0H7.59638C3.40723 0 0 3.49042 0 7.78166V28.5328C0 32.8241 3.40731 36.3144 7.59638 36.3144H27.8534C32.0426 36.3144 35.4498 32.824 35.4498 28.5328V7.78166C35.4498 3.49033 32.0425 0 27.8534 0ZM32.9177 28.5328C32.9177 31.3941 30.6466 33.7205 27.8534 33.7205H7.59638C4.80314 33.7205 2.53213 31.3941 2.53213 28.5328V7.78166C2.53213 4.92029 4.80314 2.59389 7.59638 2.59389H27.8534C30.6466 2.59389 32.9177 4.92029 32.9177 7.78166V28.5328ZM17.7249 7.78166C12.14 7.78166 7.59638 12.4361 7.59638 18.1572C7.59638 23.8783 12.14 28.5328 17.7249 28.5328C23.3098 28.5328 27.8534 23.8783 27.8534 18.1572C27.8534 12.4361 23.3098 7.78166 17.7249 7.78166ZM17.7249 25.9389C13.5357 25.9389 10.1285 22.4484 10.1285 18.1572C10.1285 13.866 13.5358 10.3755 17.7249 10.3755C21.914 10.3755 25.3213 13.866 25.3213 18.1572C25.3213 22.4484 21.914 25.9389 17.7249 25.9389ZM28.7524 6.86073C28.9803 7.10715 29.1196 7.44433 29.1196 7.78158C29.1196 8.11882 28.9803 8.45599 28.7524 8.70243C28.5119 8.93588 28.1827 9.07854 27.8535 9.07854C27.5243 9.07854 27.1951 8.93588 26.9546 8.70243C26.7267 8.45601 26.5874 8.11882 26.5874 7.78158C26.5874 7.44433 26.7267 7.10717 26.9546 6.86073C27.423 6.39383 28.2713 6.38088 28.7524 6.86073Z" fill="#FF0606"/>
</svg>
