<svg width="39" height="36" viewBox="0 0 39 36" fill="none" xmlns="http://www.w3.org/2000/svg">
<path fill-rule="evenodd" clip-rule="evenodd" d="M34.0994 0.325718C27.2545 4.0199 8.24699 14.2764 1.42791 17.9556C0.509457 18.4515 -0.0435096 19.4271 0.00268466 20.4691C0.0502375 21.5099 0.688793 22.4337 1.64664 22.844L10.8556 26.7964L10.8108 32.572C10.8013 33.6956 11.486 34.7105 12.5335 35.1209C13.5797 35.5325 14.7726 35.2567 15.5321 34.4279L19.4219 30.1781L29.336 33.4592C30.0805 33.7065 30.8971 33.6182 31.5723 33.2174C32.249 32.8179 32.7191 32.1454 32.8617 31.3723L38.0613 3.21149C38.2515 2.18299 37.8344 1.13684 36.9893 0.520013C36.1429 -0.095457 35.0192 -0.17019 34.0994 0.325718ZM34.969 4.99812L30.1892 30.8791L19.4409 27.3222C18.9328 27.1537 18.373 27.3004 18.0116 27.6944L13.5281 32.5924L13.5756 26.4689L34.969 4.99812ZM2.71728 20.3468L11.9099 24.291L31.0968 5.03345L2.71728 20.3468Z" fill="#FF0606"/>
</svg>
