<svg width="37" height="37" viewBox="0 0 37 37" fill="none" xmlns="http://www.w3.org/2000/svg">
<path d="M18.2854 0.132935C23.1455 0.133015 27.6647 1.99678 31.0999 5.43372C34.537 8.87076 36.4035 13.3911 36.4036 18.2511C36.4036 22.9615 34.6517 27.3489 31.4172 30.7433L31.0999 31.0685C25.1744 37.0436 15.8283 38.0847 8.71509 33.6554L1.66626 36.2013C0.877112 36.4862 0.100952 35.7479 0.345947 34.9454L2.63892 27.4318C-1.54893 20.273 -0.410075 11.3147 5.46802 5.43665C8.90509 1.9995 13.4254 0.132935 18.2854 0.132935ZM18.2874 2.34583C14.0323 2.34585 10.0202 3.99103 7.02368 6.98743C1.75332 12.2557 0.8354 20.3272 4.79907 26.6613L5.04321 27.0519L5.07544 27.1036L5.05688 27.1613L3.62524 31.8517C3.4444 32.4452 4.01944 32.9902 4.60278 32.7784L8.97876 31.1906L9.04614 31.1661L9.10376 31.2091L9.49438 31.5021H9.49341C15.7767 35.703 24.1839 34.8808 29.5491 29.5157C32.5456 26.5194 34.1888 22.5063 34.1926 18.2511C34.1925 13.9961 32.5475 9.98385 29.551 6.98743C26.5547 3.98915 22.5424 2.34583 18.2874 2.34583Z" fill="#FF0606" stroke="#FF0606" stroke-width="0.265715" stroke-linecap="round"/>
</svg>
