<svg width="38" height="39" viewBox="0 0 38 39" fill="none" xmlns="http://www.w3.org/2000/svg">
<g filter="url(#filter0_f_1233_1198)">
<path d="M28.7181 0.864624H8.46113C4.27198 0.864624 0.864746 4.35504 0.864746 8.64628V29.3974C0.864746 33.6887 4.27206 37.179 8.46113 37.179H28.7181C32.9073 37.179 36.3145 33.6886 36.3145 29.3974V8.64628C36.3145 4.35496 32.9072 0.864624 28.7181 0.864624ZM33.7824 29.3974C33.7824 32.2587 31.5114 34.5851 28.7181 34.5851H8.46113C5.66789 34.5851 3.39687 32.2587 3.39687 29.3974V8.64628C3.39687 5.78492 5.66789 3.45851 8.46113 3.45851H28.7181C31.5114 3.45851 33.7824 5.78492 33.7824 8.64628V29.3974ZM18.5896 8.64628C13.0048 8.64628 8.46113 13.3008 8.46113 19.0218C8.46113 24.7429 13.0048 29.3974 18.5896 29.3974C24.1745 29.3974 28.7181 24.7429 28.7181 19.0218C28.7181 13.3008 24.1745 8.64628 18.5896 8.64628ZM18.5896 26.8035C14.4005 26.8035 10.9933 23.3131 10.9933 19.0218C10.9933 14.7306 14.4006 11.2402 18.5896 11.2402C22.7787 11.2402 26.186 14.7306 26.186 19.0218C26.186 23.3131 22.7787 26.8035 18.5896 26.8035ZM29.6172 7.72535C29.845 7.97177 29.9843 8.30895 29.9843 8.6462C29.9843 8.98345 29.845 9.32061 29.6172 9.56705C29.3766 9.8005 29.0474 9.94316 28.7182 9.94316C28.389 9.94316 28.0599 9.8005 27.8193 9.56705C27.5914 9.32063 27.4521 8.98345 27.4521 8.6462C27.4521 8.30895 27.5914 7.97179 27.8193 7.72535C28.2877 7.25845 29.136 7.2455 29.6172 7.72535Z" fill="#FF0606"/>
</g>
<defs>
<filter id="filter0_f_1233_1198" x="0.000117302" y="-4.76837e-06" width="37.179" height="38.0437" filterUnits="userSpaceOnUse" color-interpolation-filters="sRGB">
<feFlood flood-opacity="0" result="BackgroundImageFix"/>
<feBlend mode="normal" in="SourceGraphic" in2="BackgroundImageFix" result="shape"/>
<feGaussianBlur stdDeviation="0.432314" result="effect1_foregroundBlur_1233_1198"/>
</filter>
</defs>
</svg>
