<svg width="40" height="38" viewBox="0 0 40 38" fill="none" xmlns="http://www.w3.org/2000/svg">
<g filter="url(#filter0_f_1233_1196)">
<path fill-rule="evenodd" clip-rule="evenodd" d="M34.9642 1.19034C28.1193 4.88452 9.11173 15.141 2.29265 18.8202C1.3742 19.3162 0.821237 20.2917 0.867431 21.3338C0.914984 22.3745 1.55354 23.2984 2.51139 23.7087L11.7203 27.661L11.6755 33.4366C11.666 34.5602 12.3508 35.5752 13.3983 35.9855C14.4444 36.3971 15.6373 36.1213 16.3968 35.2925L20.2867 31.0427L30.2008 34.3238C30.9453 34.5711 31.7618 34.4828 32.4371 34.082C33.1137 33.6826 33.5838 33.01 33.7265 32.2369L38.926 4.07611C39.1162 3.04761 38.6991 2.00147 37.854 1.38464C37.0076 0.769167 35.884 0.694434 34.9642 1.19034ZM35.8337 5.86274L31.054 31.7437L20.3057 28.1868C19.7975 28.0183 19.2378 28.1651 18.8764 28.5591L14.3928 33.457L14.4404 27.3336L35.8337 5.86274ZM3.58202 21.2114L12.7747 25.1556L31.9616 5.89807L3.58202 21.2114Z" fill="#FF0606"/>
</g>
<defs>
<filter id="filter0_f_1233_1196" x="0.000117302" y="-4.76837e-06" width="39.8359" height="37.0388" filterUnits="userSpaceOnUse" color-interpolation-filters="sRGB">
<feFlood flood-opacity="0" result="BackgroundImageFix"/>
<feBlend mode="normal" in="SourceGraphic" in2="BackgroundImageFix" result="shape"/>
<feGaussianBlur stdDeviation="0.432314" result="effect1_foregroundBlur_1233_1196"/>
</filter>
</defs>
</svg>
