<svg width="39" height="39" viewBox="0 0 39 39" fill="none" xmlns="http://www.w3.org/2000/svg">
<g filter="url(#filter0_f_1233_1199)">
<path d="M13.9551 9.01184C14.5717 9.01184 15.1435 9.21993 15.6084 9.68469L18.0459 12.1222C18.9755 13.0519 18.9756 14.549 18.0459 15.4786L16.7988 16.7247C17.3107 17.7275 18.6295 19.9424 21.0898 21.0724L22.3408 19.7765L22.3418 19.7745C23.2714 18.8449 24.7686 18.8449 25.6982 19.7745L28.2324 22.3107C28.6482 22.7265 28.9062 23.345 28.9062 23.964C28.9062 24.5807 28.6974 25.1524 28.2324 25.6173L27.2549 26.5948C26.4075 27.3936 25.3111 27.8928 24.1621 27.9943C23.9042 28.0456 23.6013 28.046 23.3145 28.046C21.0426 28.046 17.446 27.3528 14.0537 23.8126L14.0527 23.8107L13.3711 23.0802L13.3701 23.0792C10.0254 19.4408 9.77601 15.6479 9.92383 13.7218C9.97514 12.5608 10.5277 11.5073 11.3242 10.6622L12.3018 9.68469C12.7175 9.26896 13.3362 9.01194 13.9551 9.01184ZM13.9502 11.2296C13.9413 11.2324 13.9293 11.2367 13.916 11.2433C13.8882 11.2571 13.8651 11.2738 13.8535 11.2853L12.8779 12.2609C12.4122 12.7267 12.1358 13.3316 12.0889 13.9327L12.0879 13.9347C11.944 15.4653 12.182 18.5443 14.9297 21.5822L15.6094 22.2618C18.7928 25.6372 22.2083 25.9235 23.9346 25.7794H23.9365C24.5371 25.7342 25.1414 25.4554 25.6074 24.9894L26.583 24.0148V24.0138C26.6341 23.9637 26.6641 23.9336 26.6816 23.9113C26.683 23.9095 26.6835 23.9068 26.6846 23.9054C26.6817 23.8971 26.6775 23.8865 26.6719 23.8751C26.658 23.8472 26.6413 23.8241 26.6299 23.8126L24.1924 21.3751C24.1745 21.3575 24.1388 21.341 24.0918 21.3409C24.0445 21.3409 24.008 21.3573 23.9902 21.3751L22.6211 22.7443C22.0025 23.3125 21.0677 23.5239 20.2812 23.1573V23.1564C17.1225 21.7723 15.4958 19.1098 14.7598 17.6378L14.7588 17.6339C14.3951 16.8536 14.55 15.8664 15.1748 15.2413L16.4912 13.9249C16.5088 13.907 16.5244 13.8712 16.5244 13.8243C16.5244 13.7771 16.509 13.7406 16.4912 13.7228L14.0381 11.2697L14.0283 11.2501C14.0246 11.2426 14.0212 11.2398 14.0195 11.2384C14.0176 11.2368 14.0142 11.2344 14.0088 11.2325C13.9954 11.2282 13.9788 11.2277 13.9531 11.2277C13.9605 11.2277 13.9605 11.2264 13.9502 11.2296Z" fill="#FF0606" stroke="#FF0606" stroke-width="0.265715" stroke-linecap="round"/>
<path d="M19.1711 1.01868C24.0312 1.01876 28.5505 2.88252 31.9856 6.31946C35.4227 9.7565 37.2893 14.2769 37.2893 19.1368C37.2893 23.8473 35.5374 28.2346 32.303 31.629L31.9856 31.9542C26.0602 37.9293 16.714 38.9704 9.60083 34.5411L2.552 37.087C1.76285 37.3719 0.986694 36.6336 1.23169 35.8312L3.52466 28.3175C-0.663187 21.1587 0.475667 12.2005 6.35376 6.32239C9.79084 2.88524 14.3111 1.01868 19.1711 1.01868ZM19.1731 3.23157C14.918 3.23159 10.9059 4.87677 7.90942 7.87317C2.63906 13.1414 1.72114 21.213 5.68481 27.547L5.92896 27.9376L5.96118 27.9894L5.94263 28.047L4.51099 32.7374C4.33014 33.3309 4.90518 33.8759 5.48853 33.6642L9.8645 32.0763L9.93188 32.0519L9.9895 32.0948L10.3801 32.3878H10.3792C16.6624 36.5887 25.0696 35.7665 30.4348 30.4015C33.4314 27.4051 35.0746 23.392 35.0784 19.1368C35.0783 14.8818 33.4332 10.8696 30.4368 7.87317C27.4404 4.87489 23.4281 3.23157 19.1731 3.23157Z" fill="#FF0606" stroke="#FF0606" stroke-width="0.265715" stroke-linecap="round"/>
</g>
<defs>
<filter id="filter0_f_1233_1199" x="2.49147e-05" y="2.49147e-05" width="38.3078" height="38.2863" filterUnits="userSpaceOnUse" color-interpolation-filters="sRGB">
<feFlood flood-opacity="0" result="BackgroundImageFix"/>
<feBlend mode="normal" in="SourceGraphic" in2="BackgroundImageFix" result="shape"/>
<feGaussianBlur stdDeviation="0.442859" result="effect1_foregroundBlur_1233_1199"/>
</filter>
</defs>
</svg>
